inDegrees=yes
name=IK-live
DataType=double
version=3
OpenSimVersion=4.1
endheader
time	pelvis_tilt	pelvis_list	pelvis_rotation	pelvis_tx	pelvis_ty	pelvis_tz	hip_flexion_r	hip_adduction_r	hip_rotation_r	knee_angle_r	ankle_angle_r	subtalar_angle_r	mtp_angle_r	hip_flexion_l	hip_adduction_l	hip_rotation_l	knee_angle_l	ankle_angle_l	subtalar_angle_l	mtp_angle_l	lumbar_extension	lumbar_bending	lumbar_rotation	neck_flex	neck_latbend	neck_rot	arm_flex_r	arm_add_r	arm_rot_r	elbow_flex_r	pro_sup_r	wrist_flex_r	wrist_dev_r	arm_flex_l	arm_add_l	arm_rot_l	elbow_flex_l	pro_sup_l	wrist_flex_l	wrist_dev_l
0	-14.13365764612413	5.553617579946652	-195.309048847455	0.2341366603171506	0.04326292228651554	-1.326684523481465	-22.57117169827992	-1.591976316804377	-3.241458145969817	5.899560354604904	2.451982624139334	1.987972377786656	0	-24.74788768789517	-3.395140484746916	-11.58000132048591	9.793848132074926	-0.4439473045988533	4.250290820099795	0	-21.37711699760957	1.659277491615732	3.206407148933037	0	0	0	0.7802940150988952	-15.17650214406064	33.31128018283136	7.009321667350341	24.87437594477637	0	0.01249521096733794	5.871263567331808	-13.22979593411114	43.89871341953427	6.824013541721158	33.48021890529871	0	0.01249521096733794
7.733972	-24.39431131342645	6.768190845220821	-198.7132056698608	0.2341366603171506	0.04326292228651554	-1.326684523481465	-22.57117169827992	-1.591976316804377	-3.241458145969817	5.899560354604904	2.451982624139334	1.987972377786656	0	-24.74788768789517	-3.395140484746916	-11.58000132048591	9.793848132074926	-0.4439473045988533	4.250290820099795	0	-21.37711699760957	1.659277491615732	3.206407148933037	0	0	0	0.7810700342428255	-15.1764988004801	33.31030570418707	7.021796965871773	24.87679031833977	0	0.01358898962401692	5.871971490614871	-13.22982947687326	43.89727167333528	6.836828513052319	33.48141352042807	0	0.01358898962401692
10.0489812	-7.196420744836635	-26.7268528767358	-366.5327414394018	0.2341366603171506	0.04326292228651554	-1.326684523481465	-22.57117169827992	-1.591976316804377	-3.241458145969817	5.899560354604904	2.451982624139334	1.987972377786656	0	-24.74788768789517	-3.395140484746916	-11.58000132048591	9.793848132074926	-0.4439473045988533	4.250290820099795	0	-21.37711699760957	1.659277491615732	3.206407148933037	0	0	0	0.7936855197758275	-15.17644365377924	33.29396621280634	7.238431413642314	24.91863565774896	0	0.03264970121489361	5.883457189624023	-13.2303827166603	43.87294158792871	7.059174338016637	33.50201318548634	0	0.03264970121489361
10.1990059	9.865980513277242	-19.59616625463647	-339.7058908290009	0.2341366603171506	0.04326292228651554	-1.326684523481465	-22.57117169827992	-1.591976316804377	-3.241458145969817	5.899560354604904	2.451982624139334	1.987972377786656	0	-24.74788768789517	-3.395140484746916	-11.58000132048591	9.793848132074926	-0.4439473045988533	4.250290820099795	0	-21.37711699760957	1.659277491615732	3.206407148933037	0	0	0	0.7973893893300605	-15.17642754408507	33.28922261716069	7.297937427634414	24.93058177689836	0	0.03806588437562641	5.886831668104154	-13.23054433054974	43.86589692034654	7.120151046008354	33.50791603104276	0	0.03806588437562641
10.3507651	25.31727469437088	-7.432735050830392	-313.5083394215999	0.2341366603171506	0.04326292228651554	-1.326684523481465	-22.57117169827992	-1.591976316804377	-3.241458145969817	5.899560354604904	2.451982624139334	1.987972377786656	0	-24.74788768789517	-3.395140484746916	-11.58000132048591	9.793848132074926	-0.4439473045988533	4.250290820099795	0	-21.37711699760957	1.659277491615732	3.206407148933037	0	0	0	0.7981907145732715	-15.17642411105288	33.28822925668138	7.309758257802022	24.93299420023403	0	0.03915282649972658	5.887563239975874	-13.23057877046351	43.86443183667506	7.132264507794988	33.50911514946812	0	0.03915282649972658
10.5169567	30.19434121777572	19.55604411582482	-280.8868989080033	0.2341366603171506	0.04326292228651554	-1.326684523481465	-22.57117169827992	-1.591976316804377	-3.241458145969817	5.899560354604904	2.451982624139334	1.987972377786656	0	-24.74788768789517	-3.395140484746916	-11.58000132048591	9.793848132074926	-0.4439473045988533	4.250290820099795	0	-21.37711699760957	1.659277491615732	3.206407148933037	0	0	0	0.7992939248377957	-15.17641933817175	33.28683170472283	7.327388806718504	24.93648947578642	0	0.04073933191592415	5.888569102899562	-13.23062665216192	43.86236045811417	7.150342060094571	33.51084281637674	0	0.04073933191592415
10.683887	-14.76018230090821	27.90452287627319	-225.4767722422755	0.2341366603171506	0.04326292228651554	-1.326684523481465	-22.57117169827992	-1.591976316804377	-3.241458145969817	5.899560354604904	2.451982624139334	1.987972377786656	0	-24.74788768789517	-3.395140484746916	-11.58000132048591	9.793848132074926	-0.4439473045988533	4.250290820099795	0	-21.37711699760957	1.659277491615732	3.206407148933037	0	0	0	0.8139196506800164	-15.17635543582001	33.26791830561166	7.56445907005297	24.98463512894202	0	0.06261870410157233	5.901886107383352	-13.23126772935705	43.83421657263422	7.393027040383754	33.53459818012249	0	0.06261870410157233
10.8508009	-12.92691057494818	3.910283073546449	-219.3602544532241	0.2341366603171506	0.04326292228651554	-1.326684523481465	-22.57117169827992	-1.591976316804377	-3.241458145969817	5.899560354604904	2.451982624139334	1.987972377786656	0	-24.74788768789517	-3.395140484746916	-11.58000132048591	9.793848132074926	-0.4439473045988533	4.250290820099795	0	-21.37711699760957	1.659277491615732	3.206407148933037	0	0	0	0.8146899340483215	-15.17635212112968	33.26695428268215	7.57583683028262	24.98700104108542	0	0.06368691623572124	5.902588931611049	-13.23130098223253	43.83279194405181	7.404670000103811	33.53577268749428	0	0.06368691623572124
11.0150477	-5.310503445602988	-8.040248236690394	-233.6791080276773	0.2341366603171506	0.04326292228651554	-1.326684523481465	-22.57117169827992	-1.591976316804377	-3.241458145969817	5.899560354604904	2.451982624139334	1.987972377786656	0	-24.74788768789517	-3.395140484746916	-11.58000132048591	9.793848132074926	-0.4439473045988533	4.250290820099795	0	-21.37711699760957	1.659277491615732	3.206407148933037	0	0	0	0.8152312330137567	-15.17634981213637	33.26628994002201	7.583238977577865	24.98858733856056	0	0.06439802062057923	5.903083399977795	-13.23132414575714	43.83181459334206	7.412239370747892	33.53656438749622	0	0.06439802062057923
11.182033	-0.1701502012784869	-7.10944930748273	-268.7296144433054	0.2341366603171506	0.04326292228651554	-1.326684523481465	-22.57117169827992	-1.591976316804377	-3.241458145969817	5.899560354604904	2.451982624139334	1.987972377786656	0	-24.74788768789517	-3.395140484746916	-11.58000132048591	9.793848132074926	-0.4439473045988533	4.250290820099795	0	-21.37711699760957	1.659277491615732	3.206407148933037	0	0	0	0.8160075563328941	-15.17634646887239	33.26531672757692	7.594743597484808	24.99098056215549	0	0.06547902476945643	5.903791662424511	-13.23135768531086	43.83037586788326	7.424011169016261	33.53775208513566	0	0.06547902476945643
14.5639575	3.437253584499467	-33.18449066874275	-186.6696797244071	0.2341366603171506	0.04326292228651554	-1.326684523481465	-22.57117169827992	-1.591976316804377	-3.241458145969817	5.899560354604904	2.451982624139334	1.987972377786656	0	-24.74788768789517	-3.395140484746916	-11.58000132048591	9.793848132074926	-0.4439473045988533	4.250290820099795	0	-21.37711699760957	1.659277491615732	3.206407148933037	0	0	0	0.8273975738356429	-15.176296677199	33.25057123423419	7.777184006451606	25.02856414399733	0	0.08256869288726795	5.914161926452982	-13.23185720247888	43.80842971958396	7.610612422658454	33.55629773504048	0	0.08256869288726795
14.7169859	-9.90938829701035	-71.68642886741348	-178.1753669276779	0.2341366603171506	0.04326292228651554	-1.326684523481465	-22.57117169827992	-1.591976316804377	-3.241458145969817	5.899560354604904	2.451982624139334	1.987972377786656	0	-24.74788768789517	-3.395140484746916	-11.58000132048591	9.793848132074926	-0.4439473045988533	4.250290820099795	0	-21.37711699760957	1.659277491615732	3.206407148933037	0	0	0	0.84378675663987	-15.17622492416699	33.2292817967404	8.040156317216368	25.08315641776342	0	0.1074567132976239	5.929081228599313	-13.23257704027201	43.7767186624069	7.879394904950124	33.58320988236689	0	0.1074567132976239
14.8839001	-26.01500798434045	-5.800354994677615	-245.7150988632266	0.2341366603171506	0.04326292228651554	-1.326684523481465	-22.57117169827992	-1.591976316804377	-3.241458145969817	5.899560354604904	2.451982624139334	1.987972377786656	0	-24.74788768789517	-3.395140484746916	-11.58000132048591	9.793848132074926	-0.4439473045988533	4.250290820099795	0	-21.37711699760957	1.659277491615732	3.206407148933037	0	0	0	0.8606901277474845	-15.17615104659636	33.20742460845392	8.292534333630426	25.13845155404267	0	0.1325189362260199	5.944471977416525	-13.2333181900647	43.74421186596643	8.136802733929473	33.61057877330995	0	0.1325189362260199
15.050698	-5.315797916497758	15.52210385805167	-265.4700279168303	0.2341366603171506	0.04326292228651554	-1.326684523481465	-22.57117169827992	-1.591976316804377	-3.241458145969817	5.899560354604904	2.451982624139334	1.987972377786656	0	-24.74788768789517	-3.395140484746916	-11.58000132048591	9.793848132074926	-0.4439473045988533	4.250290820099795	0	-21.37711699760957	1.659277491615732	3.206407148933037	0	0	0	0.8618576659637747	-15.17614599321233	33.20594585744318	8.309025341198472	25.1421133980068	0	0.1341735367898736	5.945536473356603	-13.23336888576072	43.74202193249099	8.153618199353412	33.61239739022734	0	0.1341735367898736
15.2174495	26.74223083448624	8.021635823465868	-311.2354400042026	0.2341366603171506	0.04326292228651554	-1.326684523481465	-22.57117169827992	-1.591976316804377	-3.241458145969817	5.899560354604904	2.451982624139334	1.987972377786656	0	-24.74788768789517	-3.395140484746916	-11.58000132048591	9.793848132074926	-0.4439473045988533	4.250290820099795	0	-21.37711699760957	1.659277491615732	3.206407148933037	0	0	0	0.8671448508114363	-15.17612294833473	33.1991514362991	8.384846128351091	25.15913199457272	0	0.1418641640306368	5.950352331866458	-13.23360007436209	43.73193231098261	8.23088405470665	33.62084081990989	0	0.1418641640306368
15.3843822	28.85879185711787	0.2285472529439455	-320.9029447038447	0.2341366603171506	0.04326292228651554	-1.326684523481465	-22.57117169827992	-1.591976316804377	-3.241458145969817	5.899560354604904	2.451982624139334	1.987972377786656	0	-24.74788768789517	-3.395140484746916	-11.58000132048591	9.793848132074926	-0.4439473045988533	4.250290820099795	0	-21.37711699760957	1.659277491615732	3.206407148933037	0	0	0	0.8676911557108133	-15.17612061918709	33.19848229414882	8.391606189666922	25.16071341042196	0	0.1425699372486115	5.950851421865011	-13.23362344004492	43.73094891982198	8.23776863903759	33.62163336851187	0	0.1425699372486115
19.0156162	-12.86808846916501	8.090668389943795	-205.6793387172879	0.2341366603171506	0.04326292228651554	-1.326684523481465	-22.57117169827992	-1.591976316804377	-3.241458145969817	5.899560354604904	2.451982624139334	1.987972377786656	0	-24.74788768789517	-3.395140484746916	-11.58000132048591	9.793848132074926	-0.4439473045988533	4.250290820099795	0	-21.37711699760957	1.659277491615732	3.206407148933037	0	0	0	0.8811809165304808	-15.17606167547584	33.18105488495046	8.585838869344554	25.20462225605118	0	0.1624396854062623	5.963134636908512	-13.23421477101636	43.70504183742523	8.435612723390747	33.64340272683587	0	0.1624396854062623
